<svg width="24" height="24" viewBox="0 0 24 24" fill="none" xmlns="http://www.w3.org/2000/svg">
<path fill-rule="evenodd" clip-rule="evenodd" d="M6.42072 4.82928C6.20746 4.63056 5.92539 4.52237 5.63393 4.52752C5.34248 4.53266 5.06441 4.65073 4.85829 4.85685C4.65217 5.06297 4.5341 5.34104 4.52896 5.6325C4.52381 5.92395 4.632 6.20602 4.83072 6.41928L10.4107 11.9993L4.83072 17.5793C4.72019 17.6823 4.63154 17.8065 4.57005 17.9445C4.50856 18.0825 4.4755 18.2314 4.47283 18.3825C4.47017 18.5335 4.49795 18.6836 4.55453 18.8237C4.61112 18.9637 4.69533 19.091 4.80216 19.1978C4.90899 19.3047 5.03624 19.3889 5.17632 19.4455C5.3164 19.502 5.46645 19.5298 5.6175 19.5272C5.76856 19.5245 5.91753 19.4914 6.05553 19.4299C6.19352 19.3685 6.31773 19.2798 6.42072 19.1693L12.0007 13.5893L17.5807 19.1693C17.6837 19.2798 17.8079 19.3685 17.9459 19.4299C18.0839 19.4914 18.2329 19.5245 18.3839 19.5272C18.535 19.5298 18.685 19.502 18.8251 19.4455C18.9652 19.3889 19.0924 19.3047 19.1993 19.1978C19.3061 19.091 19.3903 18.9637 19.4469 18.8237C19.5035 18.6836 19.5313 18.5335 19.5286 18.3825C19.5259 18.2314 19.4929 18.0825 19.4314 17.9445C19.3699 17.8065 19.2812 17.6823 19.1707 17.5793L13.5907 11.9993L19.1707 6.41928C19.3694 6.20602 19.4776 5.92395 19.4725 5.6325C19.4673 5.34104 19.3493 5.06297 19.1432 4.85685C18.937 4.65073 18.659 4.53266 18.3675 4.52752C18.0761 4.52237 17.794 4.63056 17.5807 4.82928L12.0007 10.4093L6.42072 4.82928Z" fill="#A3B2C7"/>
</svg>
