<svg xmlns="http://www.w3.org/2000/svg" xmlns:xlink="http://www.w3.org/1999/xlink" width="793.20111" height="497.79182" viewBox="0 0 793.20111 497.79182" role="img" artist="Katerina Limpitsouni" source="https://undraw.co/"><path d="m782.90501,496.79182H10.2961c-5.12617,0-9.2961-4.16993-9.2961-9.2961V10.2961C1,5.16993,5.16993,1,10.2961,1h772.60892c5.12617,0,9.2961,4.16993,9.2961,9.2961v477.19962c0,5.12617-4.16993,9.2961-9.2961,9.2961Z" fill="#fff" stroke-width="0"/><path d="m782.90501,496.79182H10.2961c-5.12617,0-9.2961-4.16993-9.2961-9.2961V10.2961C1,5.16993,5.16993,1,10.2961,1h772.60892c5.12617,0,9.2961,4.16993,9.2961,9.2961v477.19962c0,5.12617-4.16993,9.2961-9.2961,9.2961Z" fill="none" stroke="#d7d7d7" stroke-miterlimit="10" stroke-width="2"/><path d="m61.94108,42.31598H26.82249c-5.12617,0-9.2961-4.16993-9.2961-9.2961v-4.1316c0-5.12617,4.16993-9.2961,9.2961-9.2961h35.11859c5.12617,0,9.2961,4.16993,9.2961,9.2961v4.1316c0,5.12617-4.16993,9.2961-9.2961,9.2961Z" fill="#d7d7d7" stroke-width="0"/><path d="m683.74665,42.31598h-20.65799c-5.12617,0-9.2961-4.16993-9.2961-9.2961v-4.1316c0-5.12617,4.16993-9.2961,9.2961-9.2961h20.65799c5.12617,0,9.2961,4.16993,9.2961,9.2961v4.1316c0,5.12617-4.16993,9.2961-9.2961,9.2961Z" fill="#d7d7d7" stroke-width="0"/><path d="m545.3381,166.26394c-2.84854,0-5.1645,2.31696-5.1645,5.1645v4.1316c0,2.84753,2.31595,5.1645,5.1645,5.1645h119.81636c2.84854,0,5.1645-2.31696,5.1645-5.1645v-4.1316c0-2.84753-2.31595-5.1645-5.1645-5.1645h-119.81636Z" fill="#d7d7d7" stroke-width="0"/><path d="m506.08791,376.97546H26.82249c-5.12617,0-9.2961-4.16993-9.2961-9.2961V64.00688c0-5.12617,4.16993-9.2961,9.2961-9.2961h479.26542c5.12617,0,9.2961,4.16993,9.2961,9.2961v303.67249c0,5.12617-4.16993,9.2961-9.2961,9.2961Z" fill="#d7d7d7" stroke-width="0"/><path d="m508.15371,478.19962h-221.04052c-5.12617,0-9.2961-4.16993-9.2961-9.2961v-72.30297c0-5.12617,4.16993-9.2961,9.2961-9.2961h221.04052c5.12617,0,9.2961,4.16993,9.2961,9.2961v72.30297c0,5.12617-4.16993,9.2961-9.2961,9.2961Z" fill="#d7d7d7" stroke-width="0"/><path d="m246.97536,477.69326H25.93484c-5.12617,0-9.2961-4.16993-9.2961-9.2961v-72.30297c0-5.12617,4.16993-9.2961,9.2961-9.2961h221.04052c5.12617,0,9.2961,4.16993,9.2961,9.2961v72.30297c0,5.12617-4.16993,9.2961-9.2961,9.2961Z" fill="#d7d7d7" stroke-width="0"/><path d="m766.37862,387.30446c5.12617,0,9.2961,4.16993,9.2961,9.2961v72.30297c0,5.12617-4.16993,9.2961-9.2961,9.2961h-221.04052c-5.12617,0-9.2961-4.16993-9.2961-9.2961v-72.30297c0-5.12617,4.16993-9.2961,9.2961-9.2961" fill="#d7d7d7" stroke-width="0"/><path d="m545.3381,199.31673c-2.84854,0-5.1645,2.31696-5.1645,5.1645s2.31595,5.1645,5.1645,5.1645h183.85613c2.84854,0,5.1645-2.31696,5.1645-5.1645s-2.31595-5.1645-5.1645-5.1645h-183.85613Z" fill="#d7d7d7" stroke-width="0"/><path d="m545.3381,228.23792c-2.84854,0-5.1645,2.31696-5.1645,5.1645s2.31595,5.1645,5.1645,5.1645h183.85613c2.84854,0,5.1645-2.31696,5.1645-5.1645s-2.31595-5.1645-5.1645-5.1645h-183.85613Z" fill="#d7d7d7" stroke-width="0"/><path d="m545.3381,255.09331c-2.84854,0-5.1645,2.31696-5.1645,5.1645s2.31595,5.1645,5.1645,5.1645h119.81636c2.84854,0,5.1645-2.31696,5.1645-5.1645s-2.31595-5.1645-5.1645-5.1645" fill="#d7d7d7" stroke-width="0"/><path d="m725.06263,42.31598h-20.65799c-5.12617,0-9.2961-4.16993-9.2961-9.2961v-4.1316c0-5.12617,4.16993-9.2961,9.2961-9.2961h20.65799c5.12617,0,9.2961,4.16993,9.2961,9.2961v4.1316c0,5.12617-4.16993,9.2961-9.2961,9.2961Z" fill="#d7d7d7" stroke-width="0"/><path d="m766.37862,42.31598h-20.65799c-5.12617,0-9.2961-4.16993-9.2961-9.2961v-4.1316c0-5.12617,4.16993-9.2961,9.2961-9.2961h20.65799c5.12617,0,9.2961,4.16993,9.2961,9.2961v4.1316c0,5.12617-4.16993,9.2961-9.2961,9.2961Z" fill="#d7d7d7" stroke-width="0"/><path d="m297.19075,90.80456c0-8.51298,6.90113-15.41408,15.41413-15.41408s15.41391,6.9011,15.41391,15.41408c0,6.46357-3.98006,11.99452-9.62154,14.28462,1.81438,4.0945,4.45508,7.45836,4.45508,7.45836l-15.19068,12.65885-3.22791-21.33363c-4.34911-2.7251-7.24299-7.55742-7.24299-13.06819Z" fill="#ed9da0" stroke-width="0"/><path d="m270.17447,193.04143l6.76133-13.32408,7.77948,3.94772-6.76133,13.32408c.72216,2.09962.562,4.67597-.64253,7.04963-2.1076,4.1533-6.60251,6.10621-10.03972,4.36199-3.4372-1.74422-4.51506-6.52505-2.40746-10.67834,1.20453-2.37366,3.18933-4.0241,5.31022-4.681h0Z" fill="#ed9da0" stroke-width="0"/><polyline points="316.06222 132.7994 281.90439 196.64136 268.54882 189.49563 298.47119 124.08072" fill="#6c63ff" stroke-width="0"/><path d="m297.40342,147.76098l-9.30975,43.23919,40.57421,1.41538s-5.31585-30.02899-3.42867-35.21871l-27.8358-9.43586h.00002Z" fill="#ed9da0" stroke-width="0"/><rect x="354.12663" y="316.21243" width="9.48141" height="9.48139" transform="translate(-120.44124 275.56628) rotate(-36.39853)" fill="#ed9da0" stroke-width="0"/><path d="m369.31152,329.85816l-16.22226,11.95944c-1.38654,1.02218-3.01399,1.73193-4.70648,2.05249l-4.05045.7672c-.83747.15863-1.70545-.1822-2.21125-.86826-.59316-.80459-.57634-1.91566.04092-2.70192l4.91122-6.2558,6.46493-13.32946.03736.03416c.93441.85418,2.35368,2.13903,2.46013,2.20196,1.99656.442,3.52979.19365,4.55737-.73769,1.7924-1.62451,1.43108-4.81084,1.42721-4.84285l-.00294-.02449.02125-.01256c.48822-.28748.95867-.3519,1.39822-.19149.93315.34056,1.4201,1.56548,1.48986,1.75298.91099.12765,3.28029,2.84424,3.47074,3.0641,1.36319.24696,2.30167.75862,2.78926,1.52091.42631.66643.50894,1.51628.24576,2.52595-.31665,1.21479-1.06985,2.31053-2.12086,3.08536v-.00003Z" fill="#090814" stroke-width="0"/><rect x="284.9442" y="336.59286" width="9.48139" height="9.48139" fill="#ed9da0" stroke-width="0"/><path d="m292.8073,354.69885h-20.15415c-1.72259,0-3.45371-.39445-5.00623-1.14074l-3.7155-1.78603c-.76823-.36926-1.26463-1.15866-1.26463-2.01101,0-.99962.67285-1.88394,1.63626-2.15053l7.66526-2.12103,13.11336-6.89272.00981.04966c.24525,1.24203.62522,3.11841.67355,3.23222,1.34477,1.54055,2.72623,2.25045,4.10603,2.11057,2.40669-.24399,4.00663-3.0231,4.02251-3.05115l.01216-.02145.02455.0025c.56357.05833.98043.28563,1.23907.67557.54901.82784.2141,2.10275.15898,2.29505.65751.64331.95256,4.23588.97538,4.52585.95069,1.00769,1.40247,1.97645,1.34261,2.87933-.05233.7894-.49009,1.52248-1.30109,2.17901-.97571.7899-2.2322,1.22491-3.53796,1.22491h.00003Z" fill="#090814" stroke-width="0"/><polygon points="333.11211 178.00039 287.67098 178.00039 280.42759 339.12897 296.43043 339.12897 306.76985 270.60663 348.25914 325.4245 363.40617 311.72004 333.11211 270.60663 333.11211 178.00039" fill="#090814" stroke-width="0"/><path d="m305.07822,113.15431l17.45634-4.24614,11.18947,14.32697c2.66536,5.43736,3.08598,11.70469,1.17107,17.44944l-9.27843,27.8353s-28.30759-.47179-34.44089-16.98455l-1.75829-3.66311c-2.40337-5.00704-1.85823-10.93012,1.41872-15.41436l14.24203-19.30354h-.00002Z" fill="#6c63ff" stroke-width="0"/><path d="m333.86231,101.03615s-.74728,5.42314-7.59235,5.79487l-6.84507.37173s3.75809-16.97587-1.07374-13.75417c-4.83181,3.2217-17.71665-10.28465-17.71665-10.28465l-3.80187,7.13038s-9.08296-3.28913.98332-11.34337c0,0,12.01051-9.28559,24.76113-3.70958,12.75062,5.57601,11.28521,25.79478,11.28521,25.79478h.00002Z" fill="#090814" stroke-width="0"/><path d="m323.65914,205.18107l-.32408-14.93792,8.72177-.18921.32408,14.93792c1.62727,1.51061,2.70146,3.85781,2.75919,6.51898.10101,4.65635-2.94097,8.49881-6.79449,8.58241s-7.05929-3.62329-7.16032-8.27966c-.05773-2.66118.91373-5.05274,2.47388-6.63251h-.00002Z" fill="#ed9da0" stroke-width="0"/><polyline points="335.70004 130.41608 335.70004 202.82156 320.553 202.82156 316.07642 131.02728" fill="#6c63ff" stroke-width="0"/><polyline points="156.23421 354.3894 175.65931 354.3894 192.92545 354.3894 193.6196 354.3894 208.81971 354.3894 312.91394 354.3894 337.6845 354.3894 403.8304 354.3894" fill="none" stroke="#090814" stroke-miterlimit="10" stroke-width="1.5"/><path d="m272.69183,203.31631H94.21834c-3.48197,0-6.31457-2.833-6.31457-6.31477v-93.58416c0-3.48177,2.83259-6.31477,6.31457-6.31477h178.47351c3.48198,0,6.31456,2.833,6.31456,6.31477v93.58416c0,3.48177-2.8326,6.31477-6.31456,6.31477h-.00002Z" fill="#fff" stroke-width="0"/><path d="m177.0072,207.01476l-.04564-.04564-.04564.04564c-2.22087-2.21906-5.8201-2.21631-8.03915.00456-2.21906,2.22179-2.26377,5.86575-.0429,8.08479h0l8.13317,8.12496,8.1277-8.135h0c2.21906-2.22179,2.17249-5.86574-.04746-8.0848-2.22087-2.21906-5.8201-2.21631-8.03915.00456h0l-.00091.00091-.00002.00002Z" fill="#ff6363" stroke-width="0"/></svg>