<svg width="471" height="96" viewBox="0 0 471 96" fill="none" xmlns="http://www.w3.org/2000/svg">
<path d="M28.696 95.536C21.9547 95.536 16.28 94.256 11.672 91.696C7.14933 89.0507 3.352 85.0827 0.28 79.792L15.128 68.656C16.5787 71.3013 18.2427 73.3067 20.12 74.672C21.9973 75.952 23.832 76.592 25.624 76.592C28.6107 76.592 30.872 75.696 32.408 73.904C34.0293 72.0267 34.84 68.4853 34.84 63.28V10.8H56.856V65.072C56.856 70.6187 55.832 75.696 53.784 80.304C51.8213 84.912 48.7493 88.624 44.568 91.44C40.3867 94.1707 35.096 95.536 28.696 95.536ZM89.564 95.536C85.5533 95.536 82.0973 94.64 79.196 92.848C76.38 90.9707 74.204 88.5387 72.668 85.552C71.132 82.5653 70.364 79.3227 70.364 75.824C70.364 69.168 73.0947 63.9627 78.556 60.208C84.0173 56.368 92.892 53.808 105.18 52.528C105.009 50.992 104.583 49.7547 103.9 48.816C103.217 47.792 102.236 47.0667 100.956 46.64C99.676 46.128 98.0973 45.872 96.22 45.872C93.916 45.872 91.484 46.3413 88.924 47.28C86.364 48.1333 83.42 49.456 80.092 51.248L72.412 36.912C75.3987 35.12 78.428 33.584 81.5 32.304C84.572 31.024 87.6867 30.0853 90.844 29.488C94.0013 28.8053 97.244 28.464 100.572 28.464C106.119 28.464 110.855 29.5307 114.78 31.664C118.791 33.712 121.863 36.9547 123.996 41.392C126.129 45.744 127.196 51.4187 127.196 58.416V94H109.276L107.74 87.856H107.228C104.668 90.16 101.937 92.0373 99.036 93.488C96.22 94.8533 93.0627 95.536 89.564 95.536ZM97.244 78.64C99.036 78.64 100.529 78.256 101.724 77.488C102.919 76.6347 104.071 75.568 105.18 74.288V65.584C101.681 66.096 98.908 66.7787 96.86 67.632C94.8973 68.4853 93.4893 69.4667 92.636 70.576C91.7827 71.6853 91.356 72.8373 91.356 74.032C91.356 75.4827 91.868 76.6347 92.892 77.488C93.916 78.256 95.3667 78.64 97.244 78.64ZM141.549 94V30H159.469L161.005 37.808H161.517C164.077 35.3333 166.808 33.1573 169.709 31.28C172.696 29.4027 176.365 28.464 180.717 28.464C185.069 28.464 188.653 29.36 191.469 31.152C194.37 32.8587 196.674 35.376 198.381 38.704C201.026 35.9733 203.885 33.584 206.957 31.536C210.029 29.488 213.741 28.464 218.093 28.464C225.176 28.464 230.296 30.8533 233.453 35.632C236.696 40.3253 238.317 46.64 238.317 54.576V94H216.301V57.392C216.301 53.296 215.789 50.5653 214.765 49.2C213.741 47.8347 212.12 47.152 209.901 47.152C208.621 47.152 207.213 47.536 205.677 48.304C204.226 49.072 202.648 50.3093 200.941 52.016V94H178.925V57.392C178.925 53.296 178.413 50.5653 177.389 49.2C176.365 47.8347 174.744 47.152 172.525 47.152C169.794 47.152 166.808 48.7733 163.565 52.016V94H141.549ZM288.258 95.536C285.442 95.536 282.669 94.8533 279.938 93.488C277.207 92.0373 274.605 89.904 272.13 87.088H271.618L269.826 94H252.674V4.91199H274.69V25.648L274.178 34.864C276.397 32.816 278.871 31.2373 281.602 30.128C284.333 29.0187 287.106 28.464 289.922 28.464C294.957 28.464 299.351 29.8293 303.106 32.56C306.861 35.2053 309.762 38.96 311.81 43.824C313.858 48.6027 314.882 54.2773 314.882 60.848C314.882 68.1867 313.602 74.4587 311.042 79.664C308.482 84.8693 305.154 88.8373 301.058 91.568C297.047 94.2133 292.781 95.536 288.258 95.536ZM282.882 77.616C284.589 77.616 286.167 77.104 287.618 76.08C289.069 75.056 290.221 73.3493 291.074 70.96C291.927 68.5707 292.354 65.328 292.354 61.232C292.354 57.7333 292.013 54.9173 291.33 52.784C290.647 50.5653 289.623 48.944 288.258 47.92C286.978 46.896 285.357 46.384 283.394 46.384C281.773 46.384 280.279 46.7253 278.914 47.408C277.549 48.0907 276.141 49.2853 274.69 50.992V74.544C275.97 75.6533 277.293 76.464 278.658 76.976C280.109 77.4027 281.517 77.616 282.882 77.616ZM326.924 94V30H348.94V94H326.924ZM337.932 22.064C334.519 22.064 331.703 21.04 329.484 18.992C327.265 16.8587 326.156 14.2133 326.156 11.056C326.156 7.81333 327.265 5.16799 329.484 3.12C331.703 1.072 334.519 0.0479965 337.932 0.0479965C341.431 0.0479965 344.247 1.072 346.38 3.12C348.599 5.16799 349.708 7.81333 349.708 11.056C349.708 14.2133 348.599 16.8587 346.38 18.992C344.247 21.04 341.431 22.064 337.932 22.064ZM390.167 95.536C381.89 95.536 375.874 93.1467 372.119 88.368C368.45 83.504 366.615 77.1893 366.615 69.424V47.152H358.167V30.768L367.895 30L370.455 13.36H388.631V30H403.223V47.152H388.631V69.04C388.631 72.5387 389.399 74.9707 390.935 76.336C392.471 77.7013 394.263 78.384 396.311 78.384C397.335 78.384 398.316 78.2987 399.255 78.128C400.279 77.872 401.175 77.616 401.943 77.36L405.271 93.232C403.65 93.744 401.602 94.256 399.127 94.768C396.652 95.28 393.666 95.536 390.167 95.536ZM444.745 95.536C438.516 95.536 432.884 94.2133 427.849 91.568C422.9 88.9227 418.974 85.1253 416.073 80.176C413.172 75.1413 411.721 69.0827 411.721 62C411.721 55.088 413.172 49.1573 416.073 44.208C419.06 39.1733 422.9 35.2907 427.593 32.56C432.286 29.8293 437.236 28.464 442.441 28.464C448.756 28.464 453.961 29.872 458.057 32.688C462.238 35.4187 465.31 39.1307 467.273 43.824C469.321 48.5173 470.345 53.7227 470.345 59.44C470.345 61.3173 470.217 63.152 469.961 64.944C469.79 66.6507 469.62 67.888 469.449 68.656H429.129L428.873 54.32H451.657C451.657 51.8453 451.017 49.712 449.737 47.92C448.542 46.0427 446.281 45.104 442.953 45.104C441.076 45.104 439.284 45.616 437.577 46.64C435.87 47.664 434.462 49.4133 433.353 51.888C432.244 54.3627 431.689 57.7333 431.689 62C431.689 66.5227 432.5 70.0213 434.121 72.496C435.742 74.8853 437.79 76.5493 440.265 77.488C442.74 78.4267 445.257 78.896 447.817 78.896C450.036 78.896 452.169 78.5973 454.217 78C456.35 77.3173 458.569 76.336 460.873 75.056L468.041 88.112C464.628 90.5013 460.788 92.336 456.521 93.616C452.254 94.896 448.329 95.536 444.745 95.536Z" fill="white"/>
</svg>
