<svg width="68" height="67" viewBox="0 0 68 67" fill="none" xmlns="http://www.w3.org/2000/svg">
<rect x="0.5" width="67" height="67" rx="33.5" fill="#120B48"/>
<path d="M33.9418 45.3182C32.2448 45.3182 30.7334 45.0265 29.4077 44.4432C28.0895 43.8523 27.0478 43.0417 26.2827 42.0114C25.5251 40.9735 25.1349 39.7765 25.1122 38.4205H30.0668C30.0971 38.9886 30.2827 39.4886 30.6236 39.9205C30.9721 40.3447 31.4342 40.6742 32.0099 40.9091C32.5857 41.1439 33.2334 41.2614 33.9531 41.2614C34.7031 41.2614 35.366 41.1288 35.9418 40.8636C36.5175 40.5985 36.9683 40.2311 37.294 39.7614C37.6198 39.2917 37.7827 38.75 37.7827 38.1364C37.7827 37.5152 37.6084 36.9659 37.2599 36.4886C36.919 36.0038 36.4266 35.625 35.7827 35.3523C35.1463 35.0795 34.3887 34.9432 33.5099 34.9432H31.3395V31.3295H33.5099C34.2524 31.3295 34.9077 31.2008 35.4759 30.9432C36.0516 30.6856 36.4986 30.3295 36.8168 29.875C37.1349 29.4129 37.294 28.875 37.294 28.2614C37.294 27.678 37.1539 27.1667 36.8736 26.7273C36.6009 26.2803 36.2145 25.9318 35.7145 25.6818C35.2221 25.4318 34.6463 25.3068 33.9872 25.3068C33.3205 25.3068 32.7107 25.428 32.1577 25.6705C31.6046 25.9053 31.1615 26.2424 30.8281 26.6818C30.4948 27.1212 30.3168 27.6364 30.294 28.2273H25.5781C25.6009 26.8864 25.9834 25.7045 26.7259 24.6818C27.4683 23.6591 28.4683 22.8598 29.7259 22.2841C30.991 21.7008 32.419 21.4091 34.0099 21.4091C35.616 21.4091 37.0213 21.7008 38.2259 22.2841C39.4304 22.8674 40.366 23.6553 41.0327 24.6477C41.7069 25.6326 42.0402 26.7386 42.0327 27.9659C42.0402 29.2689 41.6349 30.3561 40.8168 31.2273C40.0062 32.0985 38.9493 32.6515 37.6463 32.8864V33.0682C39.3584 33.2879 40.6615 33.8826 41.5554 34.8523C42.4569 35.8144 42.9039 37.0189 42.8963 38.4659C42.9039 39.7917 42.5213 40.9697 41.7486 42C40.9834 43.0303 39.9266 43.8409 38.5781 44.4318C37.2296 45.0227 35.6842 45.3182 33.9418 45.3182Z" fill="white"/>
</svg>
