<svg xmlns="http://www.w3.org/2000/svg" xmlns:xlink="http://www.w3.org/1999/xlink" viewBox="0,0,256,256" width="48px" height="48px" fill-rule="evenodd"><g fill="none" fill-rule="evenodd" stroke="none" stroke-width="1" stroke-linecap="butt" stroke-linejoin="miter" stroke-miterlimit="10" stroke-dasharray="" stroke-dashoffset="0" font-family="none" font-weight="none" font-size="none" text-anchor="none" style="mix-blend-mode: normal"><g transform="scale(5.33333,5.33333)"><path d="M10.904,6h26.191c2.709,0 4.905,2.196 4.905,4.904v26.191c0,2.709 -2.196,4.905 -4.904,4.905h-26.192c-2.708,0 -4.904,-2.196 -4.904,-4.904v-26.192c0,-2.708 2.196,-4.904 4.904,-4.904z" fill="#0f0c0c"></path><path d="M29.208,20.607c1.576,1.126 3.507,1.788 5.592,1.788v-4.011c-0.395,0 -0.788,-0.041 -1.174,-0.123v3.157c-2.085,0 -4.015,-0.663 -5.592,-1.788v8.184c0,4.094 -3.321,7.413 -7.417,7.413c-1.528,0 -2.949,-0.462 -4.129,-1.254c1.347,1.376 3.225,2.23 5.303,2.23c4.096,0 7.417,-3.319 7.417,-7.413v-8.183zM30.657,16.561c-0.805,-0.879 -1.334,-2.016 -1.449,-3.273v-0.516h-1.113c0.28,1.597 1.236,2.962 2.562,3.789zM19.079,30.832c-0.45,-0.59 -0.693,-1.311 -0.692,-2.053c0,-1.873 1.519,-3.391 3.393,-3.391c0.349,0 0.696,0.053 1.029,0.159v-4.1c-0.389,-0.053 -0.781,-0.076 -1.174,-0.068v3.191c-0.333,-0.106 -0.68,-0.159 -1.03,-0.159c-1.874,0 -3.393,1.518 -3.393,3.391c0.001,1.325 0.76,2.472 1.867,3.03z" fill="#ec407a"></path><path d="M28.034,19.63c1.576,1.126 3.507,1.788 5.592,1.788v-3.157c-1.164,-0.248 -2.194,-0.856 -2.969,-1.701c-1.326,-0.827 -2.281,-2.191 -2.561,-3.788h-2.923v16.018c-0.007,1.867 -1.523,3.379 -3.393,3.379c-1.102,0 -2.081,-0.525 -2.701,-1.338c-1.107,-0.558 -1.866,-1.705 -1.866,-3.029c0,-1.873 1.519,-3.391 3.393,-3.391c0.359,0 0.705,0.056 1.03,0.159v-3.19c-4.024,0.083 -7.26,3.369 -7.26,7.411c0,2.018 0.806,3.847 2.114,5.183c1.18,0.792 2.601,1.254 4.129,1.254c4.096,0 7.417,-3.319 7.417,-7.413l-0.002,-8.185z" fill="#ffffff"></path><path d="M33.626,18.262v-0.854c-1.05,0.002 -2.078,-0.292 -2.969,-0.848c0.788,0.863 1.826,1.458 2.969,1.702zM28.095,12.772c-0.027,-0.153 -0.047,-0.306 -0.061,-0.461v-0.516h-4.036v16.019c-0.006,1.867 -1.523,3.379 -3.393,3.379c-0.549,0 -1.067,-0.13 -1.526,-0.362c0.62,0.813 1.599,1.338 2.701,1.338c1.87,0 3.386,-1.512 3.393,-3.379v-16.018zM21.635,21.38v-0.909c-0.337,-0.046 -0.677,-0.069 -1.018,-0.069c-4.097,0 -7.417,3.319 -7.417,7.413c0,2.567 1.305,4.829 3.288,6.159c-1.308,-1.336 -2.114,-3.165 -2.114,-5.183c0,-4.042 3.237,-7.328 7.261,-7.411z" fill="#81d4fa"></path></g></g></svg>