<svg width="68" height="67" viewBox="0 0 68 67" fill="none" xmlns="http://www.w3.org/2000/svg">
<rect x="0.5" width="67" height="67" rx="33.5" fill="#120B48"/>
<path d="M25.8082 45V41.4545L34.0923 33.7841C34.7969 33.1023 35.3878 32.4886 35.8651 31.9432C36.3499 31.3977 36.7173 30.8636 36.9673 30.3409C37.2173 29.8106 37.3423 29.2386 37.3423 28.625C37.3423 27.9432 37.187 27.3561 36.8764 26.8636C36.5658 26.3636 36.1416 25.9811 35.6037 25.7159C35.0658 25.4432 34.456 25.3068 33.7741 25.3068C33.062 25.3068 32.4408 25.4508 31.9105 25.7386C31.3802 26.0265 30.9711 26.4394 30.6832 26.9773C30.3954 27.5152 30.2514 28.1553 30.2514 28.8977H25.581C25.581 27.375 25.9257 26.053 26.6151 24.9318C27.3045 23.8106 28.2704 22.9432 29.5128 22.3295C30.7552 21.7159 32.187 21.4091 33.8082 21.4091C35.4749 21.4091 36.9257 21.7045 38.1605 22.2955C39.4029 22.8788 40.3688 23.6894 41.0582 24.7273C41.7476 25.7652 42.0923 26.9545 42.0923 28.2955C42.0923 29.1742 41.9181 30.0417 41.5696 30.8977C41.2287 31.7538 40.6188 32.7045 39.7401 33.75C38.8613 34.7879 37.6226 36.0341 36.0241 37.4886L32.6264 40.8182V40.9773H42.3991V45H25.8082Z" fill="white"/>
</svg>
