<svg xmlns="http://www.w3.org/2000/svg" width="94" height="34" fill="none"><path fill="#EE312A" fill-rule="evenodd" d="M32.536 17.291c0 9.13-7.285 16.533-16.268 16.533S0 26.43 0 17.29C0 8.153 7.285.76 16.268.76c8.993 0 16.268 7.403 16.268 16.532" clip-rule="evenodd"/><path fill="#fff" fill-rule="evenodd" d="M16.268 24.38A241 241 0 0 1 9.963 8.161H4.385s3.395 10.056 9.7 22.625h4.366c6.305-12.57 9.7-22.625 9.7-22.625h-5.577s-2.668 7.828-6.306 16.217m70.069-7.945c-3.152 0-3.395 3.45-3.395 3.45h6.79s-.242-3.45-3.395-3.45m7.528 6.901H82.942s.243 3.697 5.093 3.697c2.425 0 4.85-.74 4.85-.74l.486 3.944s-2.426.986-5.821.986c-4.85 0-9.216-2.465-9.216-9.365 0-5.423 3.395-8.873 8.246-8.873 7.285 0 7.77 7.394 7.285 10.351M56.74 17.508l.747-4.072s-5.8-1.784-10.516 1.528v16.287h5.006V18.02c2.008-1.529 4.763-.513 4.763-.513m-20.866-1.075c-3.153 0-3.396 3.45-3.396 3.45h6.791s-.242-3.45-3.395-3.45m7.518 6.901H32.478s.243 3.697 5.093 3.697c2.426 0 4.85-.74 4.85-.74l.486 3.944s-2.425.986-5.82.986c-4.851 0-9.216-2.465-9.216-9.365 0-5.423 3.395-8.873 8.245-8.873 7.276 0 7.76 7.394 7.276 10.351m25.571 1.686c-2.541-6.2-3.812-12.037-3.812-12.037h-5.083s2.541 9.977 6.868 18.238H71c4.317-8.261 6.869-18.238 6.869-18.238h-5.084c-.01 0-1.28 5.836-3.822 12.037" clip-rule="evenodd"/></svg>